<svg width="101" height="241" viewBox="0 0 101 241" fill="none" xmlns="http://www.w3.org/2000/svg">
<g filter="url(#filter0_i_8_64)">
<path d="M100.089 190.999C100.089 218.614 77.7033 240.999 50.0891 240.999C22.4749 240.999 0.0891113 218.614 0.0891113 190.999C0.0891113 163.385 22.4749 140.999 50.0891 140.999C77.7033 140.999 100.089 163.385 100.089 190.999ZM20.0891 190.999C20.0891 207.568 33.5206 220.999 50.0891 220.999C66.6577 220.999 80.0891 207.568 80.0891 190.999C80.0891 174.431 66.6577 160.999 50.0891 160.999C33.5206 160.999 20.0891 174.431 20.0891 190.999Z" fill="#D9D9D9"/>
<path d="M100.089 190.999C100.089 218.614 77.7033 240.999 50.0891 240.999C22.4749 240.999 0.0891113 218.614 0.0891113 190.999C0.0891113 163.385 22.4749 140.999 50.0891 140.999C77.7033 140.999 100.089 163.385 100.089 190.999ZM20.0891 190.999C20.0891 207.568 33.5206 220.999 50.0891 220.999C66.6577 220.999 80.0891 207.568 80.0891 190.999C80.0891 174.431 66.6577 160.999 50.0891 160.999C33.5206 160.999 20.0891 174.431 20.0891 190.999Z" fill="url(#paint0_angular_8_64)"/>
<rect x="40.0891" y="0.393005" width="20" height="150" fill="#D9D9D9"/>
<rect x="40.0891" y="0.393005" width="20" height="150" fill="url(#paint1_linear_8_64)"/>
<rect x="40.0891" y="0.393005" width="60" height="20" fill="#D9D9D9"/>
<rect x="40.0891" y="0.393005" width="60" height="20" fill="url(#paint2_linear_8_64)"/>
<rect x="40.0891" y="35.8794" width="60" height="20" fill="#D9D9D9"/>
<rect x="40.0891" y="35.8794" width="60" height="20" fill="url(#paint3_linear_8_64)"/>
</g>
<defs>
<filter id="filter0_i_8_64" x="-3.91089" y="-3.60699" width="104" height="244.606" filterUnits="userSpaceOnUse" color-interpolation-filters="sRGB">
<feFlood flood-opacity="0" result="BackgroundImageFix"/>
<feBlend mode="normal" in="SourceGraphic" in2="BackgroundImageFix" result="shape"/>
<feColorMatrix in="SourceAlpha" type="matrix" values="0 0 0 0 0 0 0 0 0 0 0 0 0 0 0 0 0 0 127 0" result="hardAlpha"/>
<feOffset dx="-4" dy="-4"/>
<feGaussianBlur stdDeviation="2"/>
<feComposite in2="hardAlpha" operator="arithmetic" k2="-1" k3="1"/>
<feColorMatrix type="matrix" values="0 0 0 0 1 0 0 0 0 1 0 0 0 0 1 0 0 0 0.5 0"/>
<feBlend mode="normal" in2="shape" result="effect1_innerShadow_8_64"/>
</filter>
<radialGradient id="paint0_angular_8_64" cx="0" cy="0" r="1" gradientUnits="userSpaceOnUse" gradientTransform="translate(50.0891 190.999) rotate(-78.7468) scale(50.9801 51.5076)">
<stop offset="0.00718911" stop-color="#4B86F8"/>
<stop offset="0.281418" stop-color="#4B86F8"/>
<stop offset="0.359633" stop-color="#7AA7FF"/>
<stop offset="0.424131" stop-color="#4B86F8"/>
<stop offset="0.933437" stop-color="#4B86F8"/>
<stop offset="0.967793" stop-color="#6F6CF0"/>
</radialGradient>
<linearGradient id="paint1_linear_8_64" x1="40.0891" y1="75.393" x2="60.0891" y2="75.393" gradientUnits="userSpaceOnUse">
<stop stop-color="#4B86F8"/>
<stop offset="0.5" stop-color="#6F6CF0"/>
<stop offset="1" stop-color="#4B86F8"/>
</linearGradient>
<linearGradient id="paint2_linear_8_64" x1="40.0891" y1="10.393" x2="60.1022" y2="10.393" gradientUnits="userSpaceOnUse">
<stop stop-color="#4B86F8"/>
<stop offset="0.5" stop-color="#6F6CF0"/>
<stop offset="1" stop-color="#4B86F8"/>
</linearGradient>
<linearGradient id="paint3_linear_8_64" x1="40.0891" y1="45.8794" x2="60.1234" y2="45.8794" gradientUnits="userSpaceOnUse">
<stop stop-color="#4B86F8"/>
<stop offset="0.5" stop-color="#6F6CF0"/>
<stop offset="1" stop-color="#4B86F8"/>
</linearGradient>
</defs>
</svg>
